<mxfile host="app.diagrams.net" agent="Mozilla/5.0 (Windows NT 10.0; Win64; x64) AppleWebKit/537.36 (KHTML, like Gecko) Chrome/129.0.0.0 Safari/537.36" version="24.7.17">
  <diagram name="Page-1" id="-XJW_OXJdPIUnfY1TmKb">
    <mxGraphModel dx="1050" dy="565" grid="1" gridSize="10" guides="1" tooltips="1" connect="1" arrows="1" fold="1" page="1" pageScale="1" pageWidth="827" pageHeight="1169" math="0" shadow="0">
      <root>
        <mxCell id="0" />
        <mxCell id="1" parent="0" />
        <mxCell id="61mLqYHNh_jOeU7w0uLf-1" value="" style="rounded=0;whiteSpace=wrap;html=1;fillColor=#f8cecc;strokeColor=#b85450;" vertex="1" parent="1">
          <mxGeometry x="120" y="80" width="80" height="80" as="geometry" />
        </mxCell>
        <mxCell id="61mLqYHNh_jOeU7w0uLf-2" value="" style="rounded=0;whiteSpace=wrap;html=1;fillColor=#f8cecc;strokeColor=#b85450;" vertex="1" parent="1">
          <mxGeometry x="200" y="80" width="80" height="80" as="geometry" />
        </mxCell>
        <mxCell id="61mLqYHNh_jOeU7w0uLf-3" value="" style="rounded=0;whiteSpace=wrap;html=1;fillColor=#f8cecc;strokeColor=#b85450;" vertex="1" parent="1">
          <mxGeometry x="280" y="80" width="80" height="80" as="geometry" />
        </mxCell>
        <mxCell id="61mLqYHNh_jOeU7w0uLf-4" value="" style="rounded=0;whiteSpace=wrap;html=1;fillColor=#f8cecc;strokeColor=#b85450;" vertex="1" parent="1">
          <mxGeometry x="360" y="80" width="80" height="80" as="geometry" />
        </mxCell>
        <mxCell id="61mLqYHNh_jOeU7w0uLf-5" value="" style="rounded=0;whiteSpace=wrap;html=1;fillColor=#dae8fc;strokeColor=#6c8ebf;" vertex="1" parent="1">
          <mxGeometry x="440" y="80" width="80" height="80" as="geometry" />
        </mxCell>
        <mxCell id="61mLqYHNh_jOeU7w0uLf-6" value="" style="rounded=0;whiteSpace=wrap;html=1;fillColor=#dae8fc;strokeColor=#6c8ebf;" vertex="1" parent="1">
          <mxGeometry x="520" y="80" width="80" height="80" as="geometry" />
        </mxCell>
        <mxCell id="61mLqYHNh_jOeU7w0uLf-7" value="" style="rounded=0;whiteSpace=wrap;html=1;fillColor=#dae8fc;strokeColor=#6c8ebf;" vertex="1" parent="1">
          <mxGeometry x="600" y="80" width="80" height="80" as="geometry" />
        </mxCell>
        <mxCell id="61mLqYHNh_jOeU7w0uLf-8" value="" style="rounded=0;whiteSpace=wrap;html=1;fillColor=#dae8fc;strokeColor=#6c8ebf;" vertex="1" parent="1">
          <mxGeometry x="680" y="80" width="80" height="80" as="geometry" />
        </mxCell>
        <mxCell id="61mLqYHNh_jOeU7w0uLf-9" value="&lt;font style=&quot;font-size: 18px;&quot;&gt;61FE18&lt;/font&gt;" style="text;html=1;align=center;verticalAlign=middle;whiteSpace=wrap;rounded=0;" vertex="1" parent="1">
          <mxGeometry x="125" y="160" width="70" height="40" as="geometry" />
        </mxCell>
        <mxCell id="61mLqYHNh_jOeU7w0uLf-10" value="&lt;font style=&quot;font-size: 18px;&quot;&gt;61FE19&lt;/font&gt;" style="text;html=1;align=center;verticalAlign=middle;whiteSpace=wrap;rounded=0;" vertex="1" parent="1">
          <mxGeometry x="205" y="160" width="70" height="40" as="geometry" />
        </mxCell>
        <mxCell id="61mLqYHNh_jOeU7w0uLf-11" value="&lt;font style=&quot;font-size: 18px;&quot;&gt;61FE1A&lt;/font&gt;" style="text;html=1;align=center;verticalAlign=middle;whiteSpace=wrap;rounded=0;" vertex="1" parent="1">
          <mxGeometry x="285" y="160" width="70" height="40" as="geometry" />
        </mxCell>
        <mxCell id="61mLqYHNh_jOeU7w0uLf-12" value="&lt;font style=&quot;font-size: 18px;&quot;&gt;61FE1B&lt;/font&gt;" style="text;html=1;align=center;verticalAlign=middle;whiteSpace=wrap;rounded=0;" vertex="1" parent="1">
          <mxGeometry x="365" y="160" width="70" height="40" as="geometry" />
        </mxCell>
        <mxCell id="61mLqYHNh_jOeU7w0uLf-13" value="&lt;font style=&quot;font-size: 18px;&quot;&gt;61FE1C&lt;/font&gt;" style="text;html=1;align=center;verticalAlign=middle;whiteSpace=wrap;rounded=0;" vertex="1" parent="1">
          <mxGeometry x="445" y="160" width="70" height="40" as="geometry" />
        </mxCell>
        <mxCell id="61mLqYHNh_jOeU7w0uLf-14" value="&lt;font style=&quot;font-size: 18px;&quot;&gt;61FE1D&lt;/font&gt;" style="text;html=1;align=center;verticalAlign=middle;whiteSpace=wrap;rounded=0;" vertex="1" parent="1">
          <mxGeometry x="525" y="160" width="70" height="40" as="geometry" />
        </mxCell>
        <mxCell id="61mLqYHNh_jOeU7w0uLf-15" value="&lt;font style=&quot;font-size: 18px;&quot;&gt;61FE1E&lt;/font&gt;" style="text;html=1;align=center;verticalAlign=middle;whiteSpace=wrap;rounded=0;" vertex="1" parent="1">
          <mxGeometry x="605" y="160" width="70" height="40" as="geometry" />
        </mxCell>
        <mxCell id="61mLqYHNh_jOeU7w0uLf-16" value="&lt;font style=&quot;font-size: 18px;&quot;&gt;61FE1F&lt;/font&gt;" style="text;html=1;align=center;verticalAlign=middle;whiteSpace=wrap;rounded=0;" vertex="1" parent="1">
          <mxGeometry x="685" y="160" width="70" height="40" as="geometry" />
        </mxCell>
        <mxCell id="61mLqYHNh_jOeU7w0uLf-17" value="&lt;b style=&quot;&quot;&gt;&lt;font style=&quot;font-size: 24px;&quot;&gt;int a&lt;/font&gt;&lt;/b&gt;" style="text;html=1;align=center;verticalAlign=middle;whiteSpace=wrap;rounded=0;" vertex="1" parent="1">
          <mxGeometry x="125" y="85" width="70" height="70" as="geometry" />
        </mxCell>
        <mxCell id="61mLqYHNh_jOeU7w0uLf-18" value="&lt;b style=&quot;&quot;&gt;&lt;font style=&quot;font-size: 24px;&quot;&gt;int b&lt;/font&gt;&lt;/b&gt;" style="text;html=1;align=center;verticalAlign=middle;whiteSpace=wrap;rounded=0;" vertex="1" parent="1">
          <mxGeometry x="445" y="85" width="70" height="70" as="geometry" />
        </mxCell>
      </root>
    </mxGraphModel>
  </diagram>
</mxfile>
